HIERARCHY
ROOT Hips
{
	OFFSET 0.00000 0.00000 0.00000
	CHANNELS 6 Xposition Yposition Zposition Zrotation Yrotation Xrotation 
	JOINT LHipJoint
	{
		OFFSET 0 0 0
		CHANNELS 3 Zrotation Yrotation Xrotation
		JOINT LeftUpLeg
		{
			OFFSET 1.64577 -1.42384 0.94276
			CHANNELS 3 Zrotation Yrotation Xrotation
			JOINT LeftLeg
			{
				OFFSET 2.11538 -5.81197 0.00000
				CHANNELS 3 Zrotation Yrotation Xrotation
				JOINT LeftFoot
				{
					OFFSET 2.36541 -6.49893 0.00000
					CHANNELS 3 Zrotation Yrotation Xrotation
					JOINT LeftToeBase
					{
						OFFSET 0.17759 -0.48793 1.73865
						CHANNELS 3 Zrotation Yrotation Xrotation
						End Site
						{
							OFFSET 0.00000 -0.00000 0.91205
						}
					}
				}
			}
		}
	}
	JOINT RHipJoint
	{
		OFFSET 0 0 0
		CHANNELS 3 Zrotation Yrotation Xrotation
		JOINT RightUpLeg
		{
			OFFSET -1.43750 -1.42384 0.94276
			CHANNELS 3 Zrotation Yrotation Xrotation
			JOINT RightLeg
			{
				OFFSET -2.10480 -5.78291 0.00000
				CHANNELS 3 Zrotation Yrotation Xrotation
				JOINT RightFoot
				{
					OFFSET -2.34880 -6.45329 0.00000
					CHANNELS 3 Zrotation Yrotation Xrotation
					JOINT RightToeBase
					{
						OFFSET -0.22842 -0.62757 1.80469
						CHANNELS 3 Zrotation Yrotation Xrotation
						End Site
						{
							OFFSET -0.00000 -0.00000 0.95886
						}
					}
				}
			}
		}
	}
	JOINT LowerBack
	{
		OFFSET 0 0 0
		CHANNELS 3 Zrotation Yrotation Xrotation
		JOINT Spine
		{
			OFFSET 0.06217 1.93758 -0.49272
			CHANNELS 3 Zrotation Yrotation Xrotation
			JOINT Spine1
			{
				OFFSET -0.03114 2.03621 -0.05830
				CHANNELS 3 Zrotation Yrotation Xrotation
				JOINT Neck
				{
					OFFSET 0 0 0
					CHANNELS 3 Zrotation Yrotation Xrotation
					JOINT Neck1
					{
						OFFSET 0.04421 1.41010 0.26562
						CHANNELS 3 Zrotation Yrotation Xrotation
						JOINT Head
						{
							OFFSET -0.13407 1.43847 0.06181
							CHANNELS 3 Zrotation Yrotation Xrotation
							End Site
							{
								OFFSET -0.04980 1.45844 -0.00689
							}
						}
					}
				}
				JOINT LeftShoulder
				{
					OFFSET 0 0 0
					CHANNELS 3 Zrotation Yrotation Xrotation
					JOINT LeftArm
					{
						OFFSET 2.18382 1.47753 -0.35694
						CHANNELS 3 Zrotation Yrotation Xrotation
						JOINT LeftForeArm
						{
							OFFSET 5.05460 -0.00000 0.00000
							CHANNELS 3 Zrotation Yrotation Xrotation
							JOINT LeftHand
							{
								OFFSET 3.39013 -0.00000 0.00000
								CHANNELS 3 Zrotation Yrotation Xrotation
								JOINT LeftFingerBase
								{
									OFFSET 0 0 0
									CHANNELS 3 Zrotation Yrotation Xrotation
									JOINT LeftHandIndex1
									{
										OFFSET 0.57242 -0.00000 -0.00000
										CHANNELS 3 Zrotation Yrotation Xrotation
										End Site
										{
											OFFSET 0.46150 -0.00000 -0.00000
										}
									}
								}
								JOINT LThumb
								{
									OFFSET 0 0 0
									CHANNELS 3 Zrotation Yrotation Xrotation
									End Site
									{
										OFFSET 0.46855 -0.00000 0.46855
									}
								}
							}
						}
					}
				}
				JOINT RightShoulder
				{
					OFFSET 0 0 0
					CHANNELS 3 Zrotation Yrotation Xrotation
					JOINT RightArm
					{
						OFFSET -2.06033 1.72839 -0.47437
						CHANNELS 3 Zrotation Yrotation Xrotation
						JOINT RightForeArm
						{
							OFFSET -5.07010 -0.00000 0.00000
							CHANNELS 3 Zrotation Yrotation Xrotation
							JOINT RightHand
							{
								OFFSET -3.14957 -0.00000 -0.00000
								CHANNELS 3 Zrotation Yrotation Xrotation
								JOINT RightFingerBase
								{
									OFFSET 0 0 0
									CHANNELS 3 Zrotation Yrotation Xrotation
									JOINT RightHandIndex1
									{
										OFFSET -0.71819 -0.00000 -0.00000
										CHANNELS 3 Zrotation Yrotation Xrotation
										End Site
										{
											OFFSET -0.57902 -0.00000 -0.00000
										}
									}
								}
								JOINT RThumb
								{
									OFFSET 0 0 0
									CHANNELS 3 Zrotation Yrotation Xrotation
									End Site
									{
										OFFSET -0.58786 -0.00000 0.58786
									}
								}
							}
						}
					}
				}
			}
		}
	}
}
MOTION
Frames: 15
Frame Time: .0083333
45.9307 15.2591 1.2818 716.1210 147.3380 715.6650 0.0000 0.0000 0.0000 -28.0521 -11.8467 -3.3068 2.2437 9.3563 26.9164 1.1747 11.3243 -27.4269 0.1196 -2.2292 -6.1396 0.0000 0.0000 0.0000 19.0597 -3.7693 -16.0404 -6.2609 -14.6765 46.0200 -2.1023 -19.3352 -39.7470 -0.4502 4.3046 -11.9353 -1.4686 2.8240 4.8479 -2.2403 4.1062 5.1995 -1.5748 2.1931 2.7141 21.6896 16.1865 5.0048 -20.1424 24.2037 3.5215 -7.8615 12.2835 5.3916 0.0000 -0.0000 0.0000 -82.3171 4.0009 40.7953 21.7008 -32.6372 -6.4237 -0.0000 0.0000 -3.8160 18.6869 11.9913 4.0196 -7.1250 0.0000 -0.0000 -7.6836 42.4894 0.4790 0.0000 -0.0000 0.0000 88.9777 -8.3903 28.4392 -21.0758 31.9167 -6.0900 0.0000 -0.0000 -18.7537 -18.5388 -0.2570 0.0862 7.1250 -0.0000 -0.0000 6.3359 -30.2190 2.2986
45.9051 15.2532 1.2474 716.5180 149.1050 715.3770 0.0000 0.0000 0.0000 -28.1707 -12.1243 -1.8344 2.0413 8.9515 25.6437 0.9920 11.3718 -26.1043 0.2440 -3.1789 -8.7773 0.0000 0.0000 0.0000 18.6022 -3.8804 -16.8792 -7.0666 -15.3877 49.1257 -1.6752 -18.4585 -36.8447 -0.3790 3.9540 -10.9472 -0.8068 2.7961 5.5102 -2.3319 4.1206 5.4281 -2.0681 2.2432 2.6363 21.4320 16.2567 4.9030 -20.1158 24.2303 3.2749 -7.8133 12.2884 5.3035 -0.0000 0.0000 0.0000 -82.1988 3.8600 40.9620 21.8916 -32.8543 -6.5269 -0.0000 0.0000 -3.8343 18.6806 12.2396 4.0998 -7.1250 0.0000 -0.0000 -7.7377 42.7467 0.4330 -0.0000 0.0000 0.0000 89.0838 -8.0583 28.2027 -21.0921 31.9357 -6.0986 0.0000 -0.0000 -18.8467 -18.8622 -0.1038 0.0354 7.1250 -0.0000 -0.0000 6.0713 -30.0611 2.2246
45.9099 15.2547 1.2224 715.7790 150.9600 714.8440 0.0000 0.0000 0.0000 -29.1834 -12.4965 -0.3986 1.7649 8.3581 23.8072 0.8024 11.4951 -24.7075 0.4066 -4.0934 -11.3397 0.0000 0.0000 0.0000 17.2130 -3.2311 -18.0009 -7.9162 -16.0573 52.2604 -1.3859 -17.0807 -33.9753 -0.3567 3.8371 -10.6188 -1.7862 2.7148 5.8018 -2.5779 4.0117 5.4768 -1.7894 2.1776 2.4772 21.6898 16.2959 5.2338 -20.3825 24.3661 3.0158 -7.9387 12.3777 5.2686 0.0000 -0.0000 0.0000 -82.5677 2.7668 40.5012 20.9614 -31.7833 -6.0296 -0.0000 0.0000 -3.7756 19.1440 12.5582 4.3164 -7.1250 0.0000 -0.0000 -7.3859 43.1268 0.3434 0.0000 -0.0000 0.0000 89.1129 -7.9271 28.4118 -21.1122 31.9591 -6.1092 0.0000 -0.0000 -19.0120 -19.2043 -0.0141 0.0049 7.1250 -0.0000 -0.0000 5.7968 -29.9693 2.1358
45.9533 15.2531 1.2023 711.9270 153.5080 713.4940 0.0000 0.0000 0.0000 -32.9865 -13.0111 0.2644 1.5591 7.8800 22.3501 0.7054 10.9471 -23.3658 0.5496 -4.7493 -13.1949 0.0000 0.0000 0.0000 12.7074 -2.7023 -19.7720 -8.7292 -16.6303 55.1489 -1.3316 -15.0113 -31.7244 -0.4885 4.4816 -12.4356 -5.9066 2.8306 5.4677 -3.5345 4.1709 5.4482 -0.4835 2.1885 2.4607 21.8069 16.1674 5.0563 -20.2746 24.1818 3.1717 -7.9337 12.2780 5.3046 -0.0000 -0.0000 0.0000 -82.1618 2.8742 41.5524 20.8102 -31.6061 -5.9502 -0.0000 0.0000 -5.1509 20.5741 11.6541 4.3361 -7.1250 0.0000 -0.0000 -5.9414 42.3282 0.3932 -0.0000 -0.0000 0.0000 89.4334 -7.9072 27.7950 -21.2031 32.0647 -6.1574 0.0000 -0.0000 -19.1775 -19.5548 -0.0340 0.0121 7.1250 -0.0000 -0.0000 5.5227 -29.9928 2.0308
45.9839 15.2660 1.1808 711.3300 155.7720 713.5050 0.0000 0.0000 0.0000 -33.7041 -13.4558 0.8283 1.4532 7.6197 21.5647 0.7868 9.5001 -22.7658 0.4404 -4.2580 -11.8037 0.0000 0.0000 0.0000 11.6251 -1.9514 -20.6226 -9.2483 -16.9649 56.9449 -1.3041 -13.4606 -30.1590 -0.6773 5.2621 -14.6577 -6.7946 2.8889 5.5714 -3.8195 4.2696 5.4514 -0.2999 2.2398 2.3777 21.8038 16.0733 4.6688 -19.9905 23.9974 3.4735 -7.8364 12.1637 5.3796 0.0000 0.0000 0.0000 -81.6841 2.7308 42.2899 20.5429 -31.2909 -5.8107 -0.0000 0.0000 -5.2727 20.7688 11.4053 4.2888 -7.1250 0.0000 -0.0000 -5.7265 42.0850 0.4133 0.0000 0.0000 0.0000 89.8307 -7.8262 27.1732 -21.2879 32.1629 -6.2025 0.0000 -0.0000 -19.2717 -19.8234 -0.1663 0.0599 7.1250 -0.0000 -0.0000 5.3192 -30.1346 1.9373
45.9974 15.2814 1.1549 712.9430 157.5700 713.9500 0.0000 0.0000 0.0000 -32.3702 -13.7254 2.0712 1.3053 7.2377 20.4214 0.8054 8.5552 -22.1298 0.3554 -3.8302 -10.5994 0.0000 0.0000 0.0000 13.0598 -0.8432 -20.5688 -9.6098 -17.1845 58.1762 -1.2174 -12.7619 -28.9642 -0.9591 6.2360 -17.4707 -5.6297 2.7894 6.2049 -3.4250 4.0980 5.5050 -0.5621 2.1803 2.1216 21.0391 16.1241 4.6342 -19.4595 23.9593 3.3860 -7.5902 12.1375 5.1833 0.0000 -0.0000 0.0000 -81.5963 2.6771 42.3396 20.1304 -30.7992 -5.5980 -0.0000 0.0000 -5.0116 21.1415 11.5250 4.4180 -7.1250 0.0000 -0.0000 -5.4141 42.2491 0.3686 0.0000 -0.0000 0.0000 89.6850 -7.7534 27.4840 -21.3341 32.2163 -6.2271 0.0000 -0.0000 -19.3622 -20.0293 -0.2609 0.0951 7.1250 -0.0000 -0.0000 5.1624 -30.2365 1.8672
45.9846 15.2943 1.1079 716.3850 159.1410 714.4640 0.0000 0.0000 0.0000 -29.4665 -14.0986 3.5429 1.2789 7.1667 20.2102 0.8085 8.2592 -21.9156 0.5755 -4.8579 -13.5036 0.0000 0.0000 0.0000 16.4470 0.0030 -19.4877 -9.6559 -17.2118 58.3319 -0.9771 -12.8304 -27.3180 -1.6101 8.0017 -22.7193 -2.0135 2.5827 7.1613 -2.7199 3.8975 5.7349 -1.8747 2.1667 1.9901 20.5870 16.0421 4.5642 -19.1872 23.7746 3.2912 -7.4836 12.0415 5.0369 -0.0000 0.0000 0.0000 -81.6722 2.3835 41.2943 19.5094 -30.0468 -5.2835 -0.0000 0.0000 -3.0240 20.8618 12.2241 4.6133 -7.1250 0.0000 -0.0000 -5.7821 42.9595 0.2922 -0.0000 0.0000 0.0000 89.5776 -7.6455 27.9149 -21.3630 32.2497 -6.2425 0.0000 -0.0000 -19.4394 -20.2846 -0.2516 0.0930 7.1250 -0.0000 -0.0000 4.9607 -30.2286 1.7947
46.0532 15.2882 1.0763 712.9780 161.7820 713.8410 0.0000 0.0000 0.0000 -32.8978 -14.7947 3.5293 1.2522 7.0943 19.9951 0.7981 7.4128 -21.1450 0.9393 -6.1731 -17.2876 0.0000 0.0000 0.0000 12.6049 0.9692 -20.4046 -9.8356 -17.3164 58.9374 -1.0898 -11.2934 -26.7764 -1.7984 8.4329 -24.0369 -6.1054 2.5171 6.7030 -3.5790 3.7655 5.6980 -0.4632 2.0357 2.0484 20.3604 15.9100 4.4790 -18.9700 23.5379 3.2346 -7.4263 11.9205 4.9304 0.0000 -0.0000 0.0000 -81.5176 2.1715 40.6942 18.9066 -29.3024 -4.9850 -0.0000 0.0000 -3.1938 21.8838 11.9482 4.7536 -7.1250 0.0000 -0.0000 -4.8177 42.7755 0.2651 0.0000 -0.0000 0.0000 89.6325 -7.6346 28.2401 -21.4243 32.3202 -6.2752 0.0000 -0.0000 -19.5089 -20.4853 -0.1381 0.0516 7.1250 -0.0000 -0.0000 4.7965 -30.1094 1.7486
46.0938 15.2951 1.0321 713.2310 163.9520 714.1140 0.0000 0.0000 0.0000 -32.8000 -15.4576 4.0998 1.2152 6.9927 19.6936 0.8337 6.3765 -20.7067 1.0485 -6.5115 -18.2760 0.0000 0.0000 0.0000 12.7424 2.1640 -20.2509 -9.7327 -17.2568 58.5912 -1.0931 -10.5042 -26.1340 -2.1002 9.0716 -26.0197 -5.9865 2.4714 6.7011 -3.7176 3.7452 5.7284 -0.6690 2.0433 2.0991 20.3239 15.6775 4.2858 -18.7290 23.1403 3.2021 -7.3999 11.7149 4.8380 0.0000 -0.0000 0.0000 -81.2851 1.8959 40.1698 18.3511 -28.6044 -4.7161 -0.0000 0.0000 -2.1007 20.2844 13.7710 5.0280 -7.1250 0.0000 -0.0000 -6.5967 44.5222 0.0781 0.0000 -0.0000 0.0000 89.9628 -7.6907 28.1531 -21.5576 32.4735 -6.3467 0.0000 -0.0000 -19.4955 -20.4459 -0.0753 0.0281 7.1250 -0.0000 -0.0000 4.8241 -30.0423 1.7665
46.1326 15.2965 0.9839 713.6340 166.0340 714.2540 0.0000 0.0000 0.0000 -32.5641 -15.9023 5.0395 1.1205 6.7241 18.9006 0.8165 5.6694 -20.0441 1.3256 -7.2914 -20.5816 0.0000 0.0000 0.0000 13.1001 3.6407 -19.7671 -9.5597 -17.1547 58.0063 -1.1345 -9.6018 -25.7181 -2.3750 9.6070 -27.7133 -5.7337 2.4258 6.9558 -3.7639 3.6967 5.7280 -0.8671 2.0401 1.9756 20.2077 15.4502 4.1813 -18.4160 22.7443 3.1087 -7.3503 11.5147 4.6960 0.0000 -0.0000 0.0000 -80.8689 1.9272 40.0828 17.9812 -28.1331 -4.5404 -0.0000 0.0000 -1.9140 20.8591 14.7793 5.5519 -7.1250 0.0000 -0.0000 -6.2781 45.6511 -0.1013 0.0000 -0.0000 0.0000 90.1402 -7.9100 28.2501 -21.7640 32.7092 -6.4578 0.0000 -0.0000 -19.5505 -20.3407 -0.1261 0.0467 7.1250 -0.0000 -0.0000 4.9097 -30.0957 1.7917
46.1828 15.3015 0.9326 713.9020 168.2900 714.5990 0.0000 0.0000 0.0000 -32.3441 -16.6399 5.1002 1.1678 6.8598 19.3006 0.9228 4.2387 -20.1538 1.5387 -7.8306 -22.2008 0.0000 0.0000 0.0000 13.3484 5.3113 -19.1761 -9.1612 -16.9103 56.6458 -1.2134 -8.4411 -25.4413 -2.5727 9.9689 -28.8762 -5.6688 2.3357 6.9635 -3.8580 3.5954 5.6774 -0.9959 2.0022 1.9311 20.1250 15.2753 3.9584 -18.0486 22.4071 3.1039 -7.2639 11.3360 4.6100 -0.0000 -0.0000 0.0000 -80.3987 2.0067 39.9060 17.5643 -27.5957 -4.3455 -0.0000 0.0000 -2.3826 21.3749 13.7594 5.3184 -7.1250 0.0000 -0.0000 -5.5972 44.6398 0.0499 -0.0000 -0.0000 0.0000 90.4128 -8.2087 28.3575 -22.0296 33.0105 -6.6020 0.0000 -0.0000 -19.5814 -20.4349 -0.1061 0.0395 7.1250 -0.0000 -0.0000 4.8345 -30.0751 1.7665
46.2308 15.3039 0.8774 714.3260 170.3870 714.9060 0.0000 0.0000 0.0000 -31.9296 -17.3515 5.3112 1.1988 6.9470 19.5586 1.0573 2.2919 -20.3760 1.3029 -7.2313 -20.4024 0.0000 0.0000 0.0000 13.8083 7.3684 -18.2923 -8.6950 -16.6074 55.0292 -1.3288 -6.9764 -25.3096 -2.6097 10.0348 -29.0894 -5.4891 2.2679 6.9622 -3.8141 3.5208 5.6700 -1.0453 1.9727 1.9310 19.9652 15.1535 3.6661 -17.7414 22.1567 3.1860 -7.1630 11.1971 4.5782 -0.0000 0.0000 0.0000 -79.7381 1.8985 40.1509 17.3915 -27.3710 -4.2658 -0.0000 0.0000 -2.9177 20.7579 15.1605 5.6609 -7.1250 0.0000 -0.0000 -6.4545 46.0385 -0.1661 -0.0000 0.0000 0.0000 90.5012 -8.4839 28.6154 -22.2956 33.3095 -6.7475 0.0000 -0.0000 -19.6462 -20.4831 -0.1472 0.0550 7.1250 -0.0000 -0.0000 4.7986 -30.1191 1.7483
46.2746 15.3153 0.8151 716.1630 172.3050 715.5260 0.0000 0.0000 0.0000 -29.8875 -18.0494 5.3366 1.2301 7.0339 19.8158 1.1415 0.4999 -20.3848 1.2831 -7.1782 -20.2445 0.0000 0.0000 0.0000 15.8647 9.9180 -17.2265 -8.1413 -16.2222 53.0701 -1.4207 -5.4873 -25.0876 -2.6522 10.1096 -29.3324 -4.0847 2.1813 6.6149 -3.1514 3.4191 5.7171 -1.1139 1.9176 2.1921 19.5507 14.9694 3.4962 -17.7389 21.8607 3.1014 -7.1449 11.0446 4.4795 0.0000 0.0000 0.0000 -79.3676 1.6417 40.6481 17.1992 -27.1197 -4.1778 -0.0000 0.0000 -4.9464 20.6816 15.7144 5.8378 -7.1250 0.0000 -0.0000 -6.6504 46.6090 -0.2652 0.0000 0.0000 0.0000 89.9792 -8.6174 29.3526 -22.5121 33.5510 -6.8667 0.0000 -0.0000 -19.8431 -20.8593 -0.2249 0.0857 7.1250 -0.0000 -0.0000 4.5062 -30.2046 1.6319
46.3423 15.3105 0.7570 715.4130 174.9440 716.1450 0.0000 0.0000 0.0000 -30.4009 -18.8794 4.8973 1.2502 7.0889 19.9789 1.1476 -1.2834 -19.8671 1.5482 -7.8536 -22.2704 0.0000 0.0000 0.0000 14.7926 12.1504 -16.8700 -7.6628 -15.8656 51.3389 -1.5470 -3.1923 -24.8295 -2.6535 10.1118 -29.3394 -5.1365 2.0328 6.1364 -3.4124 3.2393 5.6163 -0.7707 1.8091 2.3256 19.3774 14.9915 3.2871 -17.5891 21.2546 3.1229 -7.1390 10.6726 4.3904 -0.0000 0.0000 0.0000 -79.7025 1.3270 37.5311 16.7225 -26.4905 -3.9628 -0.0000 0.0000 -2.8834 20.6825 14.3730 5.3537 -7.1250 0.0000 -0.0000 -6.3556 45.2021 -0.0318 -0.0000 0.0000 0.0000 90.0026 -8.8365 29.8839 -22.6739 33.7303 -6.9564 0.0000 -0.0000 -19.7976 -21.6990 -0.2957 0.1177 7.1250 -0.0000 -0.0000 3.8470 -30.2863 1.3846
46.4079 15.2961 0.7067 715.0370 177.7690 716.4890 0.0000 0.0000 0.0000 -30.6055 -19.5529 4.7712 1.2692 7.1405 20.1324 1.1213 -3.1930 -19.2066 1.7146 -8.2444 -23.4588 0.0000 0.0000 0.0000 14.1695 14.2238 -15.9739 -7.1634 -15.4679 49.4895 -1.6731 -0.6363 -24.7039 -2.6554 10.1151 -29.3502 -5.8098 1.8011 6.1974 -3.4921 2.9385 5.6147 -0.4691 1.6559 2.2785 19.1966 14.7265 2.9994 -17.6569 20.8473 3.1424 -7.1732 10.4544 4.3575 0.0000 0.0000 0.0000 -79.8437 1.1231 35.6595 16.4427 -26.1172 -3.8388 -0.0000 0.0000 -1.6730 21.6161 11.9258 4.6811 -7.1250 0.0000 -0.0000 -5.0545 42.7234 0.2847 0.0000 0.0000 0.0000 89.9759 -8.9779 30.2138 -22.7888 33.8571 -7.0203 0.0000 -0.0000 -19.8843 -21.9848 -0.4679 0.1889 7.1250 -0.0000 -0.0000 3.6286 -30.4736 1.2895
